<svg width="88" height="28" viewBox="0 0 88 28" fill="none" xmlns="http://www.w3.org/2000/svg">
<path d="M7.68056 25.6733C4.94893 25.6733 3.11749 24.3117 3.45894 20.9233L4.3281 12.405H2L2.34145 9.01667H4.66955L5.10413 4.805H9.29471L8.86013 9.01667H12.1816L11.8401 12.405H8.51868L7.7116 20.2267C7.61848 21.0817 8.02202 21.905 9.38784 21.905C9.76033 21.905 10.288 21.8417 10.9089 21.6517L10.5674 24.9133C9.94658 25.4833 8.70493 25.6733 7.68056 25.6733Z" fill="#031423"/>
<path d="M12.7418 25.4833L14.418 9.01667H18.5775L16.9013 25.4833H12.7418ZM14.6353 6.73667L15.0078 3H19.1983L18.8259 6.73667H14.6353Z" fill="#031423"/>
<path d="M18.4643 25.4833L25.5727 17.06L20.8234 9.01667H25.4796L28.2423 13.9567L31.9983 9.01667H36.8718L30.3531 17.06L35.5991 25.4833H30.9118L27.7456 20.1317L23.3998 25.4833H18.4643Z" fill="#031423"/>
<path d="M54.1072 9.01667L52.431 25.4833H48.2715L48.4888 23.2983C47.4644 24.7233 45.7571 25.8 43.3669 25.8C40.0765 25.8 37.407 23.71 37.9037 18.7067L38.897 9.01667H43.0565L42.1563 18.01C41.908 20.4167 43.0565 22 45.2604 22C47.4954 22 48.7681 20.4167 49.0164 18.01L49.9477 9.01667H54.1072Z" fill="#031423"/>
<path d="M57.95 25.8C56.6463 25.8 55.5599 24.8183 55.5599 23.3617C55.5599 21.905 56.6463 20.9233 57.95 20.9233C59.2227 20.9233 60.3402 21.905 60.3402 23.3617C60.3402 24.8183 59.2227 25.8 57.95 25.8Z" fill="#031423"/>
<path d="M69.5828 25.8C65.8268 25.8 61.8224 22.95 61.8224 17.25C61.8224 11.55 65.8268 8.7 69.5828 8.7C72.4696 8.7 74.3321 10.315 74.7356 11.2333H74.8288V9.01667H78.9883V25.4833H74.8288V23.2667H74.7356C74.3321 24.185 72.4696 25.8 69.5828 25.8ZM65.9199 17.25C65.9199 20.3217 68.0928 22 70.4209 22C72.749 22 74.9219 20.3533 74.9219 17.25C74.9219 14.1467 72.749 12.5 70.4209 12.5C68.0928 12.5 65.9199 14.1783 65.9199 17.25Z" fill="#031423"/>
<path d="M81.8405 25.4833V9.01667H86V25.4833H81.8405ZM81.8405 6.73667V3H86V6.73667H81.8405Z" fill="#031423"/>
</svg>
