<svg xmlns="http://www.w3.org/2000/svg" width="20" height="16" viewBox="0 0 20 16" fill="none">
  <g clip-path="url(#clip0_6935_37464)">
    <path d="M9.62963 0.62207L9.58679 0.671581L9.55404 0.7157C9.52838 0.753004 9.50441 0.791434 9.47997 0.829537L9.42213 0.918367L9.32418 1.06651L9.22948 1.21466L9.17052 1.30355L9.07573 1.4517L9.01567 1.54059L8.91022 1.68874L8.78744 1.86651L8.72367 1.9554L8.64207 2.07392L8.52347 2.2517L8.40569 2.42948L8.27579 2.63689L8.15802 2.81466L7.94083 3.14059L7.86442 3.25911L7.79025 3.37763C7.75052 3.4381 7.7072 3.49609 7.66578 3.5554C7.61804 3.62376 7.57215 3.69342 7.52593 3.76281L7.428 3.91096L7.39111 3.97022C7.35046 4.03958 7.31173 4.11001 7.26821 4.17763C7.2293 4.23804 7.18711 4.2962 7.1464 4.3554C7.10575 4.41457 7.0667 4.47478 7.02492 4.53318L6.91636 4.68133C6.85396 4.76871 6.7957 4.85896 6.7357 4.948L6.67505 5.03689L6.59304 5.1554L6.51713 5.27392L6.44219 5.39244L6.35019 5.54059L6.23689 5.71837L6.17793 5.80726L6.12118 5.89614L6.04821 6.01466L5.99378 6.10355C5.96729 6.14411 5.9384 6.18284 5.91004 6.22207L5.84732 6.31096L5.78764 6.39985L5.70936 6.51837L5.61467 6.66651L5.55538 6.7554L5.47582 6.87392C5.43511 6.93315 5.39316 6.99146 5.35393 7.0517L5.24287 7.22948L5.1275 7.40726L5.01653 7.58503L4.89879 7.76281L4.84059 7.8517L4.80427 7.91096C4.76999 7.97049 4.7368 8.0306 4.70015 8.08874L4.64195 8.17763L4.52421 8.3554L4.43188 8.50355L4.33849 8.6517L4.24616 8.79985L4.16791 8.91837L4.01019 9.1554L3.9533 9.24429L3.86098 9.39244L3.7243 9.59985L3.68741 9.65911L3.60148 9.80726C3.58358 9.83739 3.56441 9.86675 3.54533 9.89614C3.46785 10.0154 3.38643 10.1321 3.30939 10.2517L3.19843 10.4295L3.06444 10.6369L2.95736 10.812L2.87407 10.9416L2.80815 11.0495L2.70427 11.2049L2.65096 11.2892L2.59271 11.3776L2.49804 11.5258L2.4205 11.6443L2.34676 11.7628L2.27473 11.8813L2.13976 12.0887L2.02738 12.2665L1.97262 12.3554L1.86024 12.5332C1.80924 12.6129 1.75624 12.6913 1.70391 12.7702L1.6453 12.8591L1.5547 13.0073L1.49609 13.0961L1.43724 13.185L1.37864 13.2739L1.28803 13.4221L1.22942 13.511L1.17058 13.5998L1.112 13.6887L1.07579 13.748L1.02341 13.8369L0.985245 13.8961L0.901452 14.0147L0.839822 14.1036L0.74 14.2517L0.637185 14.3998L0.577659 14.4883L0.537185 14.5454C0.511793 14.5799 0.485718 14.614 0.461511 14.6494L0.354074 14.8148C0.333274 14.8449 0.311496 14.8743 0.289422 14.9036L0.221867 14.9924L0.180444 15.0517C0.154933 15.0908 0.130489 15.1304 0.106074 15.1702C0.0829334 15.2078 0.0592298 15.2452 0.0379557 15.284L0.0240592 15.3137L0.0163556 15.3281L0 15.3776H12.8889L12.8695 15.3373L12.8594 15.3257L12.8412 15.3012C12.7991 15.256 12.7548 15.2132 12.711 15.1698C12.6526 15.112 12.5949 15.0535 12.5345 14.9979L12.4023 14.8815L12.3233 14.8092L12.2074 14.6987C12.1783 14.6718 12.1486 14.6457 12.1185 14.6198L12.0296 14.543C11.9689 14.488 11.9119 14.4291 11.8523 14.373L11.768 14.2966L11.6923 14.23C11.6512 14.1927 11.6121 14.1535 11.5722 14.115C11.5191 14.0636 11.4653 14.0129 11.41 13.964C11.3843 13.9413 11.3588 13.9175 11.3311 13.8972C11.3073 13.8798 11.2829 13.8644 11.2542 13.8563L11.1988 13.8496L11.1699 13.8512L11.1406 13.8545L11.0815 13.8615L11.0222 13.8654L10.9333 13.8665L10.8148 13.8665H10.4889H8.68148H2.75556L2.78187 13.817L2.79114 13.8025L2.80895 13.7729L2.86433 13.6886L2.9637 13.5406C3.00418 13.4815 3.04622 13.4236 3.08403 13.3628L3.17227 13.2147L3.26839 13.0665L3.32412 12.9776C3.37864 12.8888 3.43076 12.7986 3.48717 12.711L3.56542 12.5924L3.64518 12.4739L3.74767 12.3258C3.80554 12.2385 3.85621 12.1468 3.91342 12.0591L3.99434 11.9406L4.05431 11.8517L4.13318 11.7332L4.24723 11.5554L4.48323 11.1998L4.57793 11.0517L4.63689 10.9628L4.75019 10.785L4.87976 10.5776L5.03547 10.3406L5.10886 10.2221L5.18379 10.1036L5.24033 10.0147L5.30027 9.92577L5.36213 9.83688L5.42071 9.748L5.49674 9.62948L5.61911 9.4517C5.65793 9.39336 5.6941 9.33342 5.73108 9.27392L5.78797 9.18503L5.96468 8.91837L6.07639 8.74059L6.17656 8.59244C6.20767 8.54403 6.23588 8.4938 6.26516 8.44429L6.30207 8.38503L6.38024 8.26651L6.49876 8.08874C6.55796 7.99997 6.61784 7.91164 6.67582 7.82207L6.77052 7.67392L6.84856 7.5554C6.9048 7.46734 6.95618 7.37629 7.01319 7.28874C7.03929 7.24865 7.06637 7.20921 7.09404 7.17022C7.12895 7.12103 7.16439 7.07232 7.19775 7.02207L7.27419 6.90355L7.33247 6.81466L7.42308 6.66651L7.48136 6.57763L7.59455 6.39985L7.63114 6.34071C7.65908 6.29383 7.68625 6.24651 7.71627 6.20091L7.78699 6.09852L7.86204 5.98491L7.94074 5.86651C7.99982 5.77786 8.05985 5.6898 8.11695 5.59985L8.19034 5.48133L8.26519 5.36281L8.33849 5.24429L8.41333 5.12577L8.50527 4.97763L8.64166 4.77022L8.75718 4.59244L8.83908 4.47392L8.91656 4.3554L8.97713 4.26651C9.01043 4.21742 9.04364 4.16823 9.07579 4.11837L9.18676 3.94059L9.2832 3.79244L9.37585 3.64429C9.4144 3.58397 9.45582 3.52566 9.49615 3.46651L9.55526 3.37777L9.61079 3.29348L9.62759 3.26382L9.6368 3.24936L9.65926 3.19985H9.71852L9.74012 3.24936L9.76388 3.29348C9.79185 3.34219 9.82127 3.39007 9.85233 3.43689L9.97467 3.61466C10.0135 3.673 10.0496 3.73297 10.0866 3.79244L10.1428 3.88133L10.1991 3.97022L10.2576 4.05911L10.3384 4.17763L10.4312 4.32577C10.4629 4.37564 10.4957 4.42474 10.5284 4.47392L10.588 4.56281L10.6496 4.6517C10.6916 4.71075 10.7345 4.76915 10.7747 4.82948C10.8265 4.90726 10.8733 4.9882 10.9243 5.06651C10.9504 5.1066 10.9775 5.14598 11.0052 5.18503L11.089 5.30355L11.1853 5.4517L11.2446 5.54059L11.3039 5.62948L11.4268 5.80726L11.5859 6.04429L11.6884 6.19244L11.8028 6.37022L11.9392 6.57763L12.0502 6.7554C12.0895 6.81564 12.1314 6.87395 12.1721 6.93318L12.2715 7.08133L12.3287 7.17022L12.4012 7.28874C12.4337 7.33905 12.4691 7.38749 12.503 7.43688L12.6222 7.61466L13.037 8.23689L13.1157 8.35528L13.1908 8.46889L13.2801 8.59748L13.3732 8.74062L13.531 8.97763L13.5916 9.06651L13.6736 9.18503L13.7686 9.33318L13.9062 9.54059L13.9859 9.65911L14.0887 9.80726L14.148 9.89614L14.2264 10.0147L14.3216 10.1628L14.444 10.3406L14.5587 10.5184L14.62 10.6073L14.7039 10.7258C14.7366 10.7742 14.7668 10.8243 14.7977 10.8739L14.8546 10.9628L15.012 11.1998L15.1261 11.3776L15.1854 11.4665L15.2446 11.5554L15.3474 11.7036C15.4079 11.7918 15.4666 11.8812 15.5259 11.9702C15.5785 12.0491 15.6317 12.1277 15.6832 12.2073L15.7779 12.3554L15.8369 12.4443L15.9316 12.5924L16.009 12.711L16.0635 12.7998C16.0869 12.8395 16.1095 12.8797 16.1346 12.9184C16.1678 12.9693 16.2045 13.0178 16.2408 13.0665C16.2921 13.1354 16.3441 13.2036 16.3935 13.2739C16.4345 13.3325 16.4739 13.3922 16.5136 13.4517L16.6314 13.6295L16.7261 13.7776L16.7854 13.8665L16.8446 13.9554C16.8781 14.0049 16.9133 14.0532 16.9455 14.1036C16.9765 14.1519 17.004 14.2022 17.033 14.2517C17.0507 14.2819 17.0694 14.3115 17.0888 14.3406C17.1158 14.3808 17.1446 14.4197 17.1727 14.4591L17.3003 14.6369C17.3508 14.7055 17.4026 14.7731 17.4495 14.8443L17.5237 14.9628C17.5614 15.0227 17.5996 15.0824 17.6399 15.1406C17.6607 15.1706 17.6819 15.2001 17.7042 15.2289L17.7282 15.2574L17.7805 15.3089L17.8375 15.3472L17.8668 15.3598L17.8963 15.3682L17.9556 15.3759C17.9951 15.3777 18.0345 15.3775 18.0741 15.3776H18.2815H19.5259L19.5078 15.3373L19.4991 15.3257L19.4833 15.3012L19.4254 15.2267C19.3882 15.1787 19.3512 15.1306 19.3158 15.0813C19.267 15.0132 19.2217 14.9427 19.1738 14.8739L19.069 14.7258C19.027 14.667 18.9844 14.6087 18.9446 14.5484L18.8573 14.4124L18.8039 14.3356L18.7457 14.2513L18.6272 14.0739L18.4494 13.8073L18.3719 13.6887L18.2959 13.5702L18.1933 13.4221L18.1326 13.3332L18.0298 13.185L17.9705 13.0961L17.9113 13.0073L17.7036 12.6813L17.6443 12.5924L17.4669 12.3258L17.4276 12.2665L17.3718 12.1776L17.3177 12.0887L17.2594 11.9998L17.2212 11.9406L17.1085 11.7628L17.0514 11.6739C17.0049 11.6042 16.9552 11.5367 16.9095 11.4665L16.8171 11.3184L16.7602 11.2295C16.7209 11.1695 16.6807 11.1102 16.6393 11.0517L16.5755 10.9628C16.5479 10.9238 16.5208 10.8844 16.4947 10.8443L16.3836 10.6665L16.2686 10.4887C16.2321 10.43 16.1991 10.3691 16.1617 10.311L16.0616 10.1628L15.9681 10.0147L15.8477 9.83688L15.7721 9.71837L15.6756 9.57022L15.5836 9.42207L15.4871 9.27392L15.3924 9.12577L15.3332 9.03689L15.2543 8.91837L15.1554 8.77022L15.0731 8.6517L15.0124 8.56281L14.7556 8.17763L14.6565 8.02948L14.5338 7.8517L14.4388 7.70355L14.302 7.49614L14.207 7.348L14.1249 7.22948L14.0643 7.14059L13.9457 6.96281L13.7087 6.60726L13.6098 6.45911L13.5491 6.37022L13.4671 6.2517C13.4214 6.18311 13.379 6.11241 13.3325 6.04429L13.186 5.83688C13.1595 5.79792 13.1338 5.75837 13.1089 5.71837C13.0779 5.66874 13.0478 5.6186 13.0149 5.57022C12.9737 5.50957 12.929 5.4514 12.8855 5.39244C12.8566 5.35339 12.8284 5.31389 12.8008 5.27392C12.7671 5.22506 12.7344 5.17549 12.702 5.12577L12.6264 5.00726L12.5483 4.88874L12.4535 4.74059C12.4273 4.70056 12.4003 4.66109 12.3726 4.62207C12.3377 4.57291 12.3021 4.52432 12.269 4.47392L12.1948 4.3554C12.1634 4.30557 12.1314 4.25617 12.0986 4.20726L11.976 4.02948L11.8961 3.91096L11.7933 3.76281L11.614 3.49614L11.4887 3.31837L11.3921 3.17022L11.3101 3.0517C11.2763 3.00266 11.2428 2.95339 11.2102 2.90355L11.153 2.81466L11.0957 2.72577C11.0753 2.69561 11.0541 2.66598 11.0322 2.63689C10.9949 2.58749 10.9563 2.53908 10.9203 2.48874L10.8592 2.39985L10.7563 2.2517L10.6363 2.07392L10.5311 1.92577C10.4761 1.84809 10.4229 1.76909 10.3719 1.68874L10.2609 1.51096C10.2151 1.44074 10.1655 1.37327 10.119 1.30355L10.043 1.18503L9.9653 1.06651L9.82237 0.859107L9.74275 0.742337L9.70296 0.690841L9.68033 0.667018L9.66942 0.654248L9.62963 0.62207ZM18.3111 5.36281L18.2912 5.41232L18.2692 5.45644L18.238 5.5117L18.1655 5.62948L18.0656 5.80726L18.0104 5.89614C17.9859 5.93534 17.9618 5.97475 17.9385 6.01466L17.8711 6.13318L17.803 6.2517L17.7523 6.34059C17.7113 6.41046 17.6662 6.47774 17.6258 6.548L17.5613 6.66651L17.5281 6.72577L17.44 6.87392L17.3504 7.02207C17.3257 7.06207 17.2999 7.10136 17.274 7.14059L17.1168 7.37763L17.0245 7.52577L16.9496 7.64429L16.8949 7.73318L16.8046 7.88118L16.7526 7.96548L16.7375 7.99514L16.7292 8.0096L16.7111 8.05911H20L19.9873 8.0096L19.9703 7.96548L19.9432 7.91022L19.9091 7.85164C19.8711 7.79182 19.8319 7.73288 19.7926 7.67392L19.6148 7.40726C19.569 7.33851 19.5229 7.26998 19.4793 7.19985C19.4488 7.15096 19.4193 7.10148 19.3903 7.0517C19.3559 6.99241 19.3231 6.9322 19.287 6.87392L19.1533 6.66651C19.0862 6.55875 19.0236 6.4482 18.9562 6.34059L18.8418 6.16281L18.7726 6.04429L18.7377 5.98503L18.56 5.68874L18.4892 5.57028L18.4391 5.48266L18.4249 5.45644L18.408 5.42678L18.4004 5.41232L18.3704 5.36281H18.3111ZM9.98518 8.20726L9.9941 8.25677L10.0106 8.30088L10.0409 8.35614L10.0816 8.41472L10.1732 8.53318L10.2393 8.62207L10.3236 8.73943L10.3662 8.79481L10.4289 8.87167L10.4694 8.9234L10.5747 9.06654C10.627 9.13611 10.6824 9.20337 10.7335 9.27392L10.8156 9.39244C10.8432 9.43238 10.8715 9.47182 10.9003 9.51096L11.0097 9.65911L11.094 9.77647L11.1763 9.88358L11.1949 9.90871L11.2292 9.96044L11.262 10.0158L11.3147 10.1036L11.3924 10.2221L11.4306 10.2813L11.581 10.5184L11.6783 10.6665L11.7732 10.8147L11.8913 10.9924L12.1087 11.3184C12.1546 11.3874 12.2013 11.456 12.2462 11.5258C12.3215 11.6428 12.3896 11.7643 12.4649 11.8813C12.5483 12.0108 12.6368 12.137 12.7202 12.2665L12.8126 12.4147L12.889 12.5332L13.1062 12.8591L13.2239 13.0369L13.3349 13.2147L13.4503 13.3924L13.5612 13.5702C13.6447 13.6997 13.7331 13.8259 13.8165 13.9554L13.9464 14.1628L14.1021 14.3998L14.1755 14.5184L14.2519 14.6369L14.3305 14.7553L14.4056 14.8689L14.4933 14.9963L14.5265 15.0478L14.5915 15.1491L14.6578 15.2582L14.6907 15.3137L14.6997 15.3281L14.7259 15.3776H16.5926L16.5737 15.3281L16.5643 15.3137L16.5476 15.284C16.5282 15.2551 16.5069 15.2276 16.4861 15.1997L16.3979 15.0813C16.363 15.0327 16.3297 14.9829 16.2963 14.9332L16.1778 14.7554L15.9012 14.3406L15.7435 14.1036L15.6866 14.0147L15.5943 13.8665L15.4963 13.7184L15.3778 13.5406L15.121 13.1554C15.0682 13.0763 15.0162 12.9966 14.9622 12.9184L14.8361 12.7406C14.802 12.6917 14.7689 12.642 14.7358 12.5924L14.6575 12.4739L14.5652 12.3258L14.4726 12.1776L14.4041 12.0591L14.3498 11.9702L14.2913 11.8813C14.2389 11.8025 14.1856 11.7243 14.1349 11.6443C14.0792 11.5564 14.0274 11.4661 13.9726 11.3776L13.8978 11.2591L13.8245 11.1406L13.7496 11.0221L13.6577 10.8739C13.626 10.8241 13.5932 10.775 13.5605 10.7258L13.4617 10.5776C13.429 10.5285 13.396 10.4796 13.3649 10.4295L13.2584 10.2517L13.2009 10.1628L13.1654 10.1036C13.1371 10.0545 13.1122 10.0036 13.0825 9.9554C13.0637 9.92494 13.0436 9.89552 13.0226 9.86651L12.9354 9.748C12.9016 9.69964 12.8708 9.6493 12.8388 9.59985L12.702 9.39244L12.6097 9.24429L12.517 9.09614L12.4311 8.948C12.4132 8.91786 12.394 8.8885 12.375 8.85911L12.2575 8.68133L12.1466 8.50355L12.0507 8.35614L12.0165 8.30088L12.0006 8.27123L11.9921 8.25677L11.9704 8.20726H9.98518ZM8.14815 9.51096L8.11733 9.56047L8.07591 9.63081L7.93473 9.86651L7.88 9.9554L7.8059 10.0739L7.72003 10.2221L7.62812 10.3702L7.54299 10.5184L7.47259 10.6369L7.4189 10.7258L7.36281 10.8147L7.28468 10.9332L7.13431 11.1702L7.09618 11.2295L7.03793 11.3184L6.94969 11.4665L6.89425 11.5553L6.80456 11.6951L6.75556 11.7713L6.67049 11.9111C6.64062 11.9587 6.60886 12.0049 6.58198 12.0543L6.56201 12.0985L6.54815 12.148H9.86667L9.84 12.0985L9.83031 12.084L9.81167 12.0543L9.73099 11.9405L9.64678 11.8221L9.58293 11.7332L9.50136 11.6147L9.4427 11.5258L9.36717 11.4073L9.28904 11.2887L9.19434 11.1406C9.13636 11.051 9.07644 10.9627 9.01727 10.8739L8.93902 10.7554L8.8467 10.6073L8.79055 10.5184L8.69855 10.3702L8.60516 10.2221L8.47967 10.0147L8.38667 9.86651C8.34995 9.80785 8.31446 9.74847 8.27926 9.68888C8.25766 9.65229 8.2371 9.61499 8.21333 9.57973L8.19396 9.55591L8.18507 9.54314L8.14815 9.51096Z" fill="black"/>
  </g>
  <defs>
    <clipPath id="clip0_6935_37464">
      <rect width="20" height="14.7556" fill="white" transform="translate(0 0.62207)"/>
    </clipPath>
  </defs>
</svg>