<svg width="20" height="20" viewBox="0 0 20 20" fill="none" xmlns="http://www.w3.org/2000/svg">
<g clip-path="url(#clip0_6935_37603)">
<path fill-rule="evenodd" clip-rule="evenodd" d="M15.3323 19.9877C12.9092 20.2092 10.8831 17.3698 9.33012 15.9297C8.54482 21.5883 -0.00585632 21.0519 3.00991e-06 15.3118C0.00281549 12.9007 3.00991e-06 7.00915 3.00991e-06 4.67394C3.00991e-06 3.83433 0.230431 2.98883 0.662693 2.27184C1.483 0.88127 3.06814 -0.0165748 4.68243 0.000768825C7.11421 0.00385474 12.9705 -0.00200459 15.3323 0.000768825C21.0777 0.000768825 21.6234 8.5484 15.9454 9.318L18.6398 12.0088C21.6001 14.7927 19.3783 20.1101 15.3323 19.9877ZM14.0274 16.6206C15.6971 18.3407 18.3626 15.676 16.6431 14.0086L11.9721 9.34433H9.35923V11.9561L13.3969 15.9882L14.0274 16.6206ZM2.82877 15.3146C2.79072 17.7052 6.56546 17.7139 6.52769 15.3146V4.67394C6.5596 3.48156 5.29863 2.53419 4.16001 2.90149C4.11048 2.91606 4.06372 2.93063 4.01978 2.94825C3.3047 3.21336 2.80834 3.94519 2.82877 4.70894V15.3146ZM15.3323 6.51919C17.7319 6.55728 17.7291 2.78782 15.3323 2.82563H8.98857C9.4704 3.84023 9.34778 5.42034 9.35645 6.51919H15.3323Z" fill="black"/>
</g>
<defs>
<clipPath id="clip0_6935_37603">
<rect width="19.9998" height="20" fill="white"/>
</clipPath>
</defs>
</svg>
